<svg xmlns="http://www.w3.org/2000/svg" width="250" height="71.28" viewBox="0 0 250 71.28"><path d="M0,5.41A5.37,5.37,0,0,1,5.41,0a5.37,5.37,0,0,1,5.41,5.41V19.87H30.76V5.41a5.41,5.41,0,1,1,10.82,0V44.6a5.41,5.41,0,1,1-10.82,0V29.85H10.82V44.6A5.37,5.37,0,0,1,5.41,50,5.37,5.37,0,0,1,0,44.6Z" fill="#0f4262"/><path d="M50.75,44.18V5.83A5.37,5.37,0,0,1,56.16.42H83.41a4.86,4.86,0,0,1,4.85,4.84A4.8,4.8,0,0,1,83.41,10H61.5V20H80.25a4.85,4.85,0,0,1,4.85,4.84,4.8,4.8,0,0,1-4.85,4.78H61.5V40H83.76a4.86,4.86,0,0,1,4.85,4.85,4.8,4.8,0,0,1-4.85,4.78H56.16a5.37,5.37,0,0,1-5.41-5.41" fill="#0f4262"/><path d="M96,5.55A5.37,5.37,0,0,1,101.36.14h1.19A5.54,5.54,0,0,1,107.47,3l13.06,21.28L133.67,2.88A5.29,5.29,0,0,1,138.52.14h1.19a5.37,5.37,0,0,1,5.41,5.41V44.6a5.38,5.38,0,1,1-10.75,0V20.09L124.89,34.7a5.06,5.06,0,0,1-9,0l-9.34-14.4V44.74A5.28,5.28,0,0,1,101.22,50,5.22,5.22,0,0,1,96,44.74Z" fill="#0f4262"/><path d="M139.8,60.46a5.41,5.41,0,0,1,0,10.82H101a5.41,5.41,0,0,1,0-10.82Z" fill="#00b0f0"/><path d="M156.85,10.78V2.22A1.17,1.17,0,0,1,158,1h5.78a1.05,1.05,0,0,1,1,1.08,1,1,0,0,1-1,1.07h-4.65V5.39h4a1.05,1.05,0,0,1,1,1.08,1,1,0,0,1-1,1.06h-4V9.84h4.73a1.08,1.08,0,0,1,0,2.15H158a1.17,1.17,0,0,1-1.15-1.21" fill="#0f4262"/><path d="M171.06,9.81a3.06,3.06,0,0,0,3.14-3.28v0a3.08,3.08,0,0,0-3.14-3.31h-1.78V9.81ZM167,2.22A1.16,1.16,0,0,1,168.14,1h2.92a5.32,5.32,0,0,1,5.54,5.46v0A5.35,5.35,0,0,1,171.06,12h-2.92A1.16,1.16,0,0,1,167,10.78Z" fill="#0f4262"/><path d="M178.63,7.28V2.12a1.15,1.15,0,1,1,2.3,0v5.1c0,1.79.84,2.72,2.25,2.72s2.25-.9,2.25-2.64V2.12a1.15,1.15,0,1,1,2.29,0V7.2c0,3.33-1.77,5-4.57,5s-4.52-1.64-4.52-4.88" fill="#0f4262"/><path d="M189.75,6.53v0A5.45,5.45,0,0,1,195.19.82a5.35,5.35,0,0,1,3.49,1.11,1.24,1.24,0,0,1,.45,1,1.13,1.13,0,0,1-1.82.94,3.35,3.35,0,0,0-2.13-.78,3.19,3.19,0,0,0-3,3.42v0a3.2,3.2,0,0,0,3,3.45,3.3,3.3,0,0,0,2.26-.86,1,1,0,0,1,.69-.27,1.1,1.1,0,0,1,1.07,1.11,1.17,1.17,0,0,1-.39.87,5.08,5.08,0,0,1-3.71,1.38,5.42,5.42,0,0,1-5.35-5.65" fill="#0f4262"/><path d="M207.24,7.39l-1.45-3.62-1.45,3.62Zm-6.46,3.05,3.64-8.65a1.41,1.41,0,0,1,1.34-.95h.13a1.4,1.4,0,0,1,1.33,1l3.64,8.65a1.3,1.3,0,0,1,.12.48,1.12,1.12,0,0,1-1.09,1.16,1.16,1.16,0,0,1-1.1-.83l-.7-1.72h-4.6l-.73,1.8a1.12,1.12,0,0,1-1,.75A1.08,1.08,0,0,1,200.65,11a1.2,1.2,0,0,1,.13-.51" fill="#0f4262"/><path d="M214.24,3.23H212A1.09,1.09,0,0,1,211,2.12,1.09,1.09,0,0,1,212,1h6.7a1.09,1.09,0,0,1,1.06,1.11,1.09,1.09,0,0,1-1.06,1.11h-2.2v7.65a1.15,1.15,0,1,1-2.3,0Z" fill="#0f4262"/><path d="M221.73,2.12a1.15,1.15,0,1,1,2.29,0v8.76a1.15,1.15,0,1,1-2.29,0Z" fill="#0f4262"/><path d="M235,6.53v0a3.26,3.26,0,0,0-3.16-3.45,3.21,3.21,0,0,0-3.13,3.42v0A3.26,3.26,0,0,0,231.88,10,3.22,3.22,0,0,0,235,6.53m-8.69,0v0A5.54,5.54,0,0,1,231.88.82a5.48,5.48,0,0,1,5.53,5.65v0a5.55,5.55,0,1,1-11.09,0" fill="#0f4262"/><path d="M239.6,2.15A1.17,1.17,0,0,1,240.75,1H241a1.42,1.42,0,0,1,1.19.7l4.42,6.12V2.11a1.14,1.14,0,1,1,2.27,0v8.73a1.16,1.16,0,0,1-1.15,1.21h-.07a1.4,1.4,0,0,1-1.19-.7L241.86,5v5.88a1.13,1.13,0,1,1-2.26,0Z" fill="#0f4262"/><path d="M156.85,21a1.17,1.17,0,0,1,1.15-1.2h.25a1.18,1.18,0,0,1,1.05.62l2.77,4.76,2.79-4.77a1.09,1.09,0,0,1,1-.61h.26a1.16,1.16,0,0,1,1.14,1.2v8.73a1.14,1.14,0,1,1-2.27,0V24.23l-2,3.27a1.06,1.06,0,0,1-1.91,0l-2-3.22v5.46a1.13,1.13,0,1,1-2.25,0Z" fill="#0f4262"/><path d="M175.81,26.22l-1.44-3.62-1.45,3.62Zm-6.45,3.05L173,20.62a1.41,1.41,0,0,1,1.34-.95h.13a1.41,1.41,0,0,1,1.33.95l3.63,8.65a1.13,1.13,0,0,1,.12.48,1.11,1.11,0,0,1-1.08,1.16,1.18,1.18,0,0,1-1.11-.83l-.7-1.72h-4.59l-.73,1.8a1.12,1.12,0,0,1-1.06.75,1.09,1.09,0,0,1-1.06-1.13,1.22,1.22,0,0,1,.14-.51" fill="#0f4262"/><path d="M186.13,25.17a1.54,1.54,0,0,0,1.75-1.55v0c0-1-.68-1.57-1.8-1.57H183.8v3.15Zm-4.62-4.12a1.16,1.16,0,0,1,1.15-1.21h3.62a4.06,4.06,0,0,1,3,1.11,3.56,3.56,0,0,1,.89,2.51v0a3.35,3.35,0,0,1-2.08,3.34l1.59,2.05a1.42,1.42,0,0,1,.37.92A1.09,1.09,0,0,1,189,30.91a1.35,1.35,0,0,1-1.13-.62l-2.24-3H183.8v2.41a1.15,1.15,0,1,1-2.29,0Z" fill="#0f4262"/><path d="M192.43,21a1.15,1.15,0,1,1,2.3,0v3.69L199,20.21a1.29,1.29,0,0,1,1-.47A1.07,1.07,0,0,1,201,20.86a1.26,1.26,0,0,1-.42.91l-2.93,2.88,3.2,4.24a1.34,1.34,0,0,1,.31.85,1.14,1.14,0,0,1-2.13.59l-3-4.11-1.31,1.29v2.2a1.15,1.15,0,1,1-2.3,0Z" fill="#0f4262"/><path d="M203.2,29.61V21.05a1.16,1.16,0,0,1,1.14-1.21h5.79a1.08,1.08,0,0,1,0,2.15h-4.65v2.23h4a1.06,1.06,0,0,1,1,1.08,1,1,0,0,1-1,1.06h-4v2.31h4.72a1.08,1.08,0,0,1,0,2.15h-5.86a1.16,1.16,0,0,1-1.14-1.21" fill="#0f4262"/><path d="M215.76,22.06h-2.2a1.11,1.11,0,0,1,0-2.22h6.71a1.11,1.11,0,0,1,0,2.22h-2.21v7.65a1.15,1.15,0,1,1-2.3,0Z" fill="#0f4262"/><path d="M223.24,21a1.15,1.15,0,1,1,2.3,0v8.76a1.15,1.15,0,1,1-2.3,0Z" fill="#0f4262"/><path d="M228.3,21a1.17,1.17,0,0,1,1.15-1.2h.24a1.4,1.4,0,0,1,1.19.7l4.43,6.12V20.94a1.13,1.13,0,1,1,2.26,0v8.73a1.17,1.17,0,0,1-1.15,1.21h-.07a1.4,1.4,0,0,1-1.19-.7l-4.59-6.34v5.88a1.14,1.14,0,1,1-2.27,0Z" fill="#0f4262"/><path d="M239.76,25.36v0a5.5,5.5,0,0,1,5.47-5.68,5.6,5.6,0,0,1,3.57,1.07,1.22,1.22,0,0,1,.47,1,1.16,1.16,0,0,1-1.13,1.19,1.1,1.1,0,0,1-.7-.25,3.55,3.55,0,0,0-2.28-.75,3.23,3.23,0,0,0-3,3.42v0a3.22,3.22,0,0,0,3.16,3.48,3.51,3.51,0,0,0,2.16-.66V26.58h-1.55a1,1,0,0,1-1-1,1,1,0,0,1,1-1.05h2.63a1.17,1.17,0,0,1,1.15,1.21v2.66a1.65,1.65,0,0,1-.81,1.54,6.69,6.69,0,0,1-3.65,1.1,5.36,5.36,0,0,1-5.49-5.65" fill="#0f4262"/><path d="M156.67,48.49a1.13,1.13,0,0,1-.44-.91,1.1,1.1,0,0,1,1.11-1.11,1.11,1.11,0,0,1,.67.21,4.45,4.45,0,0,0,2.75,1c1,0,1.56-.39,1.56-1v0c0-.61-.37-.92-2.17-1.39-2.17-.57-3.57-1.18-3.57-3.36v0c0-2,1.57-3.31,3.77-3.31a6.12,6.12,0,0,1,3.41,1,1.12,1.12,0,1,1-1.18,1.9,4.44,4.44,0,0,0-2.26-.74c-.91,0-1.39.43-1.39,1v0c0,.72.47,1,2.33,1.44,2.18.59,3.41,1.39,3.41,3.3v0c0,2.18-1.63,3.41-3.95,3.41a6.88,6.88,0,0,1-4.05-1.32" fill="#0f4262"/><path d="M175.37,44.19v0a3.3,3.3,0,0,0-3.26-3.45,3.25,3.25,0,0,0-3.22,3.42v0a3.3,3.3,0,0,0,3.25,3.45,3.26,3.26,0,0,0,3.23-3.42m-9,0v0a5.72,5.72,0,0,1,11.44,0v0a5.63,5.63,0,0,1-5.74,5.68,5.57,5.57,0,0,1-5.7-5.65" fill="#0f4262"/><path d="M180.11,39.78a1.19,1.19,0,1,1,2.37,0v7.67h4.38a1.1,1.1,0,0,1,0,2.2h-5.57a1.18,1.18,0,0,1-1.18-1.21Z" fill="#0f4262"/><path d="M189.31,44.94V39.78a1.19,1.19,0,1,1,2.37,0v5.1c0,1.79.87,2.72,2.32,2.72s2.32-.9,2.32-2.64V39.78a1.18,1.18,0,1,1,2.36,0v5.08c0,3.33-1.82,5-4.72,5s-4.65-1.64-4.65-4.88" fill="#0f4262"/><path d="M203.76,40.89h-2.27a1.11,1.11,0,0,1,0-2.22h6.91a1.11,1.11,0,0,1,0,2.22h-2.27v7.65a1.19,1.19,0,1,1-2.37,0Z" fill="#0f4262"/><path d="M211.48,39.78a1.19,1.19,0,1,1,2.37,0v8.76a1.19,1.19,0,1,1-2.37,0Z" fill="#0f4262"/><path d="M225.18,44.19v0a3.3,3.3,0,0,0-3.26-3.45,3.26,3.26,0,0,0-3.23,3.42v0A3.31,3.31,0,0,0,222,47.61a3.26,3.26,0,0,0,3.23-3.42m-9,0v0a5.72,5.72,0,0,1,11.44,0v0a5.63,5.63,0,0,1-5.74,5.68,5.57,5.57,0,0,1-5.7-5.65" fill="#0f4262"/><path d="M229.92,39.81a1.18,1.18,0,0,1,1.18-1.2h.25a1.46,1.46,0,0,1,1.23.7l4.56,6.12V39.77a1.17,1.17,0,1,1,2.34,0V48.5a1.18,1.18,0,0,1-1.18,1.21h-.08A1.46,1.46,0,0,1,237,49l-4.73-6.34v5.88a1.17,1.17,0,1,1-2.34,0Z" fill="#0f4262"/><path d="M242,48.49a1.13,1.13,0,0,1-.44-.91,1.1,1.1,0,0,1,1.11-1.11,1.11,1.11,0,0,1,.67.21,4.45,4.45,0,0,0,2.75,1c1,0,1.56-.39,1.56-1v0c0-.61-.37-.92-2.17-1.39-2.17-.57-3.57-1.18-3.57-3.36v0c0-2,1.57-3.31,3.77-3.31a6.12,6.12,0,0,1,3.41,1,1.12,1.12,0,1,1-1.18,1.9,4.44,4.44,0,0,0-2.26-.74c-.91,0-1.39.43-1.39,1v0c0,.72.47,1,2.33,1.44,2.18.59,3.41,1.39,3.41,3.3v0c0,2.18-1.63,3.41-3.95,3.41A6.88,6.88,0,0,1,242,48.49" fill="#0f4262"/></svg>